<?xml version="1.0" ?><svg xmlns="http://www.w3.org/2000/svg" xmlns:xlink="http://www.w3.org/1999/xlink" version="1.1" viewBox="0 0 512 512" style="enable-background:new 0 0 512 512;" xml:space="preserve"><g id="_x32_4_Engineer_x2C__Professions_and_Jobs_x2C__Black_Hair_x2C__Short_Hair_x2C__Career"><g><polygon style="fill:#FFFFFF;" points="211,338.55 211,376.58 256,427.8 301,376.58 301,338.34   "/><path style="fill:#FFFFFF;" d="M256,410.58l11.933,37.753L256,500.58H151l-7.333-60.545L151,376.58c7.107,0,52.756,0,60,0    L256,410.58z"/><path style="fill:#9DCAFC;" d="M111,379.49l10.63,62.977L111,500.58H61v-54C61,414.87,82.08,388.09,111,379.49z"/><path style="fill:#FFFFFF;" d="M151,376.58v124h-40V379.49C125.509,375.142,135.27,377.052,151,376.58z"/><path style="fill:#9DCAFC;" d="M361.63,83.54V51.42c0-11.04-8.96-20-20-20h-20v26.27c-22.338-8.069-39.663-5.921-45-6.27    c-11.344,0-38.549,0-49,0c-12.64,0-24.76,2.21-36,6.27V31.42h-20c-11.05,0-20,8.96-20,20v32.12c-18.57,19.09-30,45.15-30,73.88    L256,171l135.63-13.58C391.63,128.69,380.2,102.63,361.63,83.54z"/><path style="fill:#9DCAFC;" d="M451,446.58v54h-50l-7.2-56.513l7.2-64.577C430.211,388.157,451,415.186,451,446.58z"/><path style="fill:#FFFFFF;" d="M361,376.58l12,63.455l-12,60.545H256v-90l45-34C319.368,376.58,342.083,376.58,361,376.58z"/><path style="fill:#FFFFFF;" d="M166,197.42l8.067,20l-8.067,20h-20c-11.04,0-20-8.96-20-20c0-11.04,8.95-20,20-20H166z"/><path style="fill:#FFFFFF;" d="M366,197.42c17.869,0,26.63,21.65,14.14,34.14c-3.62,3.62-8.62,5.86-14.14,5.86h-20l-8.733-22.687    L346,197.42H366z"/><path style="fill:#FFFFFF;" d="M346,259.44c0,49.33-39.326,90.573-89,91.13c-50.204,0.569-91-39.984-91-89.99    c0-22.447,0-40.709,0-63.16l86.467-13.62L346,197.42C346,219.359,346,237.27,346,259.44z"/><path style="fill:#FFFFFF;" d="M391.63,157.42c11.04,0,20,8.96,20,20c0,11.04-8.96,20-20,20c-12.931,0-256.894,0-270,0    c-11.05,0-20-8.95-20-20c0-10.958,8.875-20,20-20H391.63z"/><path style="fill:#FFFFFF;" d="M276.63,103.58h-40c0-17.38,0-65.102,0-82.16c0-5.52,4.47-10,10-10h20c5.52,0,10,4.48,10,10    C276.63,38.53,276.63,86.139,276.63,103.58z"/><path style="fill:#FFFFFF;" d="M401,379.49v121.09h-40v-124C376.708,377.051,386.489,375.141,401,379.49z"/><g id="XMLID_18_"><path style="fill:#4269A7;" d="M397.166,368.221c-10.229-2.107-13.846-1.696-86.166-1.644v-22.794     c27.069-18.163,45-49.269,45-84.346v-12.015h10c20.667,0,35.265-20.578,28.239-40.121c15.322-1.33,27.386-14.218,27.386-29.879     c0-13.148-8.506-24.339-20.3-28.382c-1.844-25.878-12.201-50.16-29.7-69.456V51.422c0-16.542-13.458-30-30-30h-20     c-5.522,0-10,4.477-10,10v12.923c-10.088-2.313-18.675-2.838-25-2.919V21.422c0-11.028-8.972-20-20-20h-20     c-11.028,0-20,8.972-20,20v20.003c-6.324,0.082-14.913,0.608-25,2.921V31.422c0-5.523-4.478-10-10-10h-20     c-16.542,0-30,13.458-30,30v28.162c-17.499,19.296-27.856,43.578-29.7,69.456c-11.795,4.042-20.3,15.234-20.3,28.382     c0,15.247,11.437,27.865,26.18,29.748c-7.104,19.476,7.384,40.252,28.195,40.252h10v13.155c0,34.913,17.851,65.663,45,83.55     v22.45c-70.531-0.051-80.015-0.96-93.168,3.433C75.202,379.898,51,410.115,51,446.578v54c0,5.523,4.478,10,10,10     c39.87,0,342.58,0,390,0c5.522,0,10-4.477,10-10v-54C461,407.945,433.684,375.748,397.166,368.221z M207.647,386.578L246,415.555     v75.022h-85v-104H207.647z M266,415.555l38.353-28.978H351v104h-85V415.555z M366,227.422h-10v-20h10c5.514,0,10,4.486,10,10     S371.514,227.422,366,227.422z M246.625,21.422h20v72.155h-20V21.422z M158.793,90.515c1.816-1.867,2.832-4.368,2.832-6.973     v-32.12c0-5.514,4.486-10,10-10h10v40c0,5.523,4.478,10,10,10s10-4.477,10-10v-16.44c10.027-2.821,18.608-3.456,25-3.556v42.151     c0,5.523,4.478,10,10,10h40c5.522,0,10-4.477,10-10v-42.16c6.383,0.103,14.985,0.748,25,3.565v16.439c0,5.523,4.478,10,10,10     s10-4.477,10-10v-40h10c5.514,0,10,4.486,10,10v32.12c0,2.604,1.016,5.106,2.832,6.973     c15.177,15.602,24.446,35.519,26.654,56.907H132.139C134.347,126.034,143.616,106.117,158.793,90.515z M111.625,177.422     c0-5.514,4.486-10,10-10h270c5.514,0,10,4.486,10,10s-4.486,10-10,10c-9.286,0-249.371,0-270,0     C116.111,187.422,111.625,182.937,111.625,177.422z M146,227.422c-5.514,0-10-4.486-10-10s4.486-10,10-10h10v20H146z      M176,260.578c0-11.158,0-42.194,0-53.155h160c0,11.893,0,41.371,0,52.015c0,44.269-35.487,80.664-79.111,81.13     C212.163,341.082,176,304.961,176,260.578z M291,354.149V371.6l-35,26.444L221,371.6v-17.32     C242.926,362.455,267.951,362.93,291,354.149z M71,446.578c0-21.792,11.951-41.402,30-51.914v95.914H71V446.578z M121,490.578     V387.423c7.478-1.258,11.613-0.706,20-0.845v104H121z M371,490.578v-104c7.922,0.132,12.418-0.428,20,0.85v103.15H371z      M441,490.578h-30v-95.946c17.849,10.319,30,29.571,30,51.946V490.578z"/><path style="fill:#4269A7;" d="M279,309.073c3.313-4.418,2.418-10.686-2-14c-4.418-3.313-10.686-2.418-14,2     c-3.503,4.671-10.498,4.669-14,0c-3.313-4.418-9.581-5.314-14-2c-4.418,3.314-5.313,9.582-2,14     C244.512,324.422,267.494,324.415,279,309.073z"/><path style="fill:#4269A7;" d="M236,250.578v-10c0-5.523-4.478-10-10-10s-10,4.477-10,10v10c0,5.523,4.478,10,10,10     S236,256.101,236,250.578z"/><path style="fill:#4269A7;" d="M286,260.578c5.522,0,10-4.477,10-10v-10c0-5.523-4.478-10-10-10s-10,4.477-10,10v10     C276,256.101,280.478,260.578,286,260.578z"/></g></g></g><g id="Layer_1"/></svg>